<?xml version="1.0" encoding="UTF-8" standalone="no"?>
<!-- Generator: Adobe Illustrator 19.2.1, SVG Export Plug-In . SVG Version: 6.00 Build 0)  -->

<svg
   xmlns:dc="http://purl.org/dc/elements/1.1/"
   xmlns:cc="http://creativecommons.org/ns#"
   xmlns:rdf="http://www.w3.org/1999/02/22-rdf-syntax-ns#"
   xmlns:svg="http://www.w3.org/2000/svg"
   xmlns="http://www.w3.org/2000/svg"
   xmlns:sodipodi="http://sodipodi.sourceforge.net/DTD/sodipodi-0.dtd"
   xmlns:inkscape="http://www.inkscape.org/namespaces/inkscape"
   version="1.1"
   id="Layer_1"
   x="0px"
   y="0px"
   viewBox="0 0 80 90.1"
   style="enable-background:new 0 0 80 90.1;"
   xml:space="preserve"
   sodipodi:docname="meh.svg"
   inkscape:version="0.92.3 (2405546, 2018-03-11)"><metadata
   id="metadata9"><rdf:RDF><cc:Work
       rdf:about=""><dc:format>image/svg+xml</dc:format><dc:type
         rdf:resource="http://purl.org/dc/dcmitype/StillImage" /><dc:title></dc:title></cc:Work></rdf:RDF></metadata><defs
   id="defs7" /><sodipodi:namedview
   pagecolor="#ffffff"
   bordercolor="#666666"
   borderopacity="1"
   objecttolerance="10"
   gridtolerance="10"
   guidetolerance="10"
   inkscape:pageopacity="0"
   inkscape:pageshadow="2"
   inkscape:window-width="1920"
   inkscape:window-height="1018"
   id="namedview5"
   showgrid="false"
   inkscape:zoom="2.6193119"
   inkscape:cx="40"
   inkscape:cy="45.049999"
   inkscape:window-x="-8"
   inkscape:window-y="-8"
   inkscape:window-maximized="1"
   inkscape:current-layer="Layer_1" />
<path
   d="M70,0c-5.5,0-10,4.5-10,10c0,3.7,2,6.9,5,8.7V40H45V18.7c3-1.7,5-5,5-8.7c0-5.5-4.5-10-10-10S30,4.5,30,10  c0,3.7,2,6.9,5,8.7V40H15V18.7c3-1.7,5-5,5-8.7c0-5.5-4.5-10-10-10S0,4.5,0,10c0,3.7,2,6.9,5,8.7v52.7c-3,1.7-5,5-5,8.7  c0,5.5,4.5,10,10,10s10-4.5,10-10c0-3.7-2-6.9-5-8.7V50h20v21.3c-3,1.7-5,5-5,8.7c0,5.5,4.5,10,10,10s10-4.5,10-10  c0-3.7-2-6.9-5-8.7V50h30V18.7c3-1.7,5-5,5-8.7C80,4.5,75.5,0,70,0z"
   id="path2"
   style="fill:#c6c8cc;fill-opacity:1" />
</svg>